<?xml version="1.0" encoding="UTF-8"?>
<!DOCTYPE svg PUBLIC "-//W3C//DTD SVG 1.1//EN" "http://www.w3.org/Graphics/SVG/1.1/DTD/svg11.dtd">
<svg xmlns="http://www.w3.org/2000/svg" xmlns:xlink="http://www.w3.org/1999/xlink" version="1.1" width="71px" height="70px" viewBox="-0.5 -0.5 71 70"><defs/><g><g/><g><path d="M 0 8.5 C 0 -2.83 70 -2.83 70 8.5 L 70 61.5 C 70 72.83 0 72.83 0 61.5 Z" fill="#d7e9f4" stroke="none" pointer-events="all"/><path d="M 0 8.5 C 0 17 70 17 70 8.5 M 0 12.75 C 0 21.25 70 21.25 70 12.75 M 0 17 C 0 25.5 70 25.5 70 17" fill="none" stroke="none" pointer-events="all"/></g><g><path d="M 69.86 9.73 Q 65.79 14.7 37.44 15.05 Q 9.09 15.4 0.14 9.87" fill="none" stroke="#00a5e1" stroke-width="0.6" stroke-miterlimit="10" pointer-events="stroke"/></g><g><path d="M 69.99 14 Q 65.79 18.9 37.09 19.25 Q 8.39 19.6 -0.01 14" fill="none" stroke="#00a5e1" stroke-width="0.6" stroke-miterlimit="10" pointer-events="stroke"/></g><g><path d="M 69.99 18.2 Q 65.79 23.8 36.74 24.15 Q 7.69 24.5 -0.01 18.2" fill="none" stroke="#00a5e1" stroke-width="0.6" stroke-miterlimit="10" pointer-events="stroke"/></g></g></svg>