<?xml version="1.0" encoding="UTF-8" standalone="no" ?>
<!DOCTYPE svg PUBLIC "-//W3C//DTD SVG 1.1//EN" "http://www.w3.org/Graphics/SVG/1.1/DTD/svg11.dtd">
<svg xmlns="http://www.w3.org/2000/svg" xmlns:xlink="http://www.w3.org/1999/xlink" version="1.1" width="640" height="640" viewBox="0 0 640 640" xml:space="preserve">
<desc>Created with Fabric.js 5.3.0</desc>
<defs>
</defs>
<g transform="matrix(1 0 0 1 312.7506012317 328.6331926474)" id="t6LLlyo7I7UwnYL83YvcS"  >
<path style="stroke: rgb(0,0,0); stroke-width: 0; stroke-dasharray: none; stroke-linecap: butt; stroke-dashoffset: 0; stroke-linejoin: miter; stroke-miterlimit: 4; fill: rgb(0,165,225); fill-rule: nonzero; opacity: 1;"  transform=" translate(0, 0)" d="M 0.304 -272.21326 L -272.32668 -0.17068999999997914 L 0.3039999999999736 272.21326000000005 L 272.32667999999995 -0.17068999999997914 z" stroke-linecap="round" />
</g>
<g transform="matrix(1 0 0 1 177.6132002119 328.6331926474)" id="VB_GT-ncA40fWR4H4EdoX"  >
<path style="stroke: rgb(0,0,0); stroke-width: 1; stroke-dasharray: none; stroke-linecap: butt; stroke-dashoffset: 0; stroke-linejoin: miter; stroke-miterlimit: 4; fill: rgb(255,255,255); fill-opacity: 0; fill-rule: nonzero; opacity: 1;"  transform=" translate(0, 0)" d="M 0 0" stroke-linecap="round" />
</g>
<g transform="matrix(1 0 0 1 177.6132002119 329.1331926474)" id="kzSToBZ41Jhxn_Ml71WkF"  >
<path style="stroke: rgb(0,0,0); stroke-width: 1; stroke-dasharray: none; stroke-linecap: butt; stroke-dashoffset: 0; stroke-linejoin: miter; stroke-miterlimit: 4; fill: rgb(255,255,255); fill-opacity: 0; fill-rule: nonzero; opacity: 1;"  transform=" translate(0, 0)" d="M 0 0" stroke-linecap="round" />
</g>
<g transform="matrix(1 0 0 1 312.7506012317 328.6331926474)" id="qcnyBU-rVYo-IctqxD2lZ"  >
<path style="stroke: rgb(0,0,0); stroke-width: 0; stroke-dasharray: none; stroke-linecap: butt; stroke-dashoffset: 0; stroke-linejoin: miter; stroke-miterlimit: 4; fill: rgb(255,255,255); fill-rule: nonzero; opacity: 1;"  transform=" translate(0, 0)" d="M -149.78109 -0.04214 C -149.53109 -0.54214 -148.36593000000002 -36.60405 -135.86593 -63.10405 C -123.36592999999999 -89.60405 -102.28108999999999 -108.85405 -102.28108999999999 -108.85405 C -102.28108999999999 -108.85405 -90.07403 -122.9712 -58.047889999999995 -138.22175 C -26.021749999999997 -153.47229 7.020859999999999 -149.33285999999998 7.020859999999999 -149.33285999999998 C 7.020859999999999 -149.33285999999998 34.96603 -147.63350999999997 58.02485 -138.22175 C 81.08367 -128.80999 102.96603 -108.85404999999999 102.96603 -108.85404999999999 C 102.96603 -108.85404999999999 125.55427 -85.69228999999999 136.1425 -63.10404999999999 C 146.73074000000003 -40.51580999999999 149.55426 -8.675329999999988 149.55426 -8.675329999999988 C 149.55426 -8.675329999999988 151.67191 19.568070000000013 142.96602 46.39160000000001 C 134.26013999999998 73.21513000000002 119.43660999999999 90.76530000000001 119.43660999999999 90.76530000000001 C 119.43660999999999 90.76530000000001 102.49542999999998 114.47464000000001 72.14248999999998 131.18052 C 41.78954999999998 147.8864 7.020849999999982 149.53346 7.020849999999982 149.53346 C 7.020849999999982 149.53346 -25.81261000000002 152.82757999999998 -58.04790000000001 138.00404999999998 C -90.28319000000002 123.18051999999997 -102.06605000000002 108.49770999999998 -102.28110000000001 108.71275999999997" stroke-linecap="round" />
</g>
<g transform="matrix(0.8131166129 0 0 0.8131166129 312.7506012317 329.1331926474)" id="iZeyQZdnK6X5e8WeAbiz5"  >
<path style="stroke: rgb(0,0,0); stroke-width: 0; stroke-dasharray: none; stroke-linecap: butt; stroke-dashoffset: 0; stroke-linejoin: miter; stroke-miterlimit: 4; fill: rgb(0,165,225); fill-rule: nonzero; opacity: 1;"  transform=" translate(0, 0)" d="M -149.78109 -0.04214 C -149.53109 -0.54214 -148.36593000000002 -36.60405 -135.86593 -63.10405 C -123.36592999999999 -89.60405 -102.28108999999999 -108.85405 -102.28108999999999 -108.85405 C -102.28108999999999 -108.85405 -90.07403 -122.9712 -58.047889999999995 -138.22175 C -26.021749999999997 -153.47229 7.020859999999999 -149.33285999999998 7.020859999999999 -149.33285999999998 C 7.020859999999999 -149.33285999999998 34.96603 -147.63350999999997 58.02485 -138.22175 C 81.08367 -128.80999 102.96603 -108.85404999999999 102.96603 -108.85404999999999 C 102.96603 -108.85404999999999 125.55427 -85.69228999999999 136.1425 -63.10404999999999 C 146.73074000000003 -40.51580999999999 149.55426 -8.675329999999988 149.55426 -8.675329999999988 C 149.55426 -8.675329999999988 151.67191 19.568070000000013 142.96602 46.39160000000001 C 134.26013999999998 73.21513000000002 119.43660999999999 90.76530000000001 119.43660999999999 90.76530000000001 C 119.43660999999999 90.76530000000001 102.49542999999998 114.47464000000001 72.14248999999998 131.18052 C 41.78954999999998 147.8864 7.020849999999982 149.53346 7.020849999999982 149.53346 C 7.020849999999982 149.53346 -25.81261000000002 152.82757999999998 -58.04790000000001 138.00404999999998 C -90.28319000000002 123.18051999999997 -102.06605000000002 108.49770999999998 -102.28110000000001 108.71275999999997" stroke-linecap="round" />
</g>
<g transform="matrix(1.0221985775 0 0 1.0221985775 187.24714842 382.5110307242)" id="dafA47PIlFgMUK22lV_ec"  >
<path style="stroke: rgb(0,0,0); stroke-width: 0; stroke-dasharray: none; stroke-linecap: butt; stroke-dashoffset: 0; stroke-linejoin: miter; stroke-miterlimit: 4; fill: rgb(255,255,255); fill-rule: nonzero; opacity: 1;"  transform=" translate(0, 0)" d="M 23.74917 54.73665 C 23.74917 54.73665 8.146329999999999 39.98488 -3.059339999999999 21.828849999999996 C -14.265009999999998 3.6728199999999944 -19.79693 -20.15697 -19.79693 -20.15697 C -19.79693 -20.15697 -23.888370000000002 -32.87951 -23.74551 -54.736650000000004" stroke-linecap="round" />
</g>
<g transform="matrix(0.8201528468 0 0 0.8201528468 210.439727704 372.8094052013)" id="Zm4JCI4uaz4ClqX-G_xbW"  >
<path style="stroke: rgb(0,0,0); stroke-width: 0; stroke-dasharray: none; stroke-linecap: butt; stroke-dashoffset: 0; stroke-linejoin: miter; stroke-miterlimit: 4; fill: rgb(0,165,225); fill-rule: nonzero; opacity: 1;"  transform=" translate(0, 0)" d="M 23.74917 54.73665 C 23.74917 54.73665 8.146329999999999 39.98488 -3.059339999999999 21.828849999999996 C -14.265009999999998 3.6728199999999944 -19.79693 -20.15697 -19.79693 -20.15697 C -19.79693 -20.15697 -23.888370000000002 -32.87951 -23.74551 -54.736650000000004" stroke-linecap="round" />
</g>
</svg>