<?xml version="1.0" encoding="UTF-8" standalone="no" ?>
<!DOCTYPE svg PUBLIC "-//W3C//DTD SVG 1.1//EN" "http://www.w3.org/Graphics/SVG/1.1/DTD/svg11.dtd">
<svg xmlns="http://www.w3.org/2000/svg" xmlns:xlink="http://www.w3.org/1999/xlink" version="1.1" width="640" height="640" viewBox="0 0 640 640" xml:space="preserve">
<desc>Created with Fabric.js 5.3.0</desc>
<defs>
</defs>
<g transform="matrix(1.0853063367 0 0 1.0853063367 330.8102754884 322.4242146628)" id="--88hjQlGfNQB7EGqt3Qw"  >
<path style="stroke: rgb(217,156,185); stroke-width: 0; stroke-dasharray: none; stroke-linecap: butt; stroke-dashoffset: 0; stroke-linejoin: miter; stroke-miterlimit: 4; fill: rgb(0,165,226); fill-rule: nonzero; opacity: 1;"  transform=" translate(0, 0)" d="M 0 -250.7732 C 138.4268 -250.7732 250.7732 -138.42681 250.7732 0 C 250.7732 138.4268 138.42681 250.7732 0 250.7732 C -138.4268 250.7732 -250.7732 138.42681 -250.7732 0 C -250.7732 -138.4268 -138.42681 -250.7732 0 -250.7732 z" stroke-linecap="round" />
</g>
<g transform="matrix(0.9759320539 0 0 0.9759320539 331.4437265305 322.2770730618)" id="HYfyGk2d3Hrwo3wowyarx"  >
<path style="stroke: rgb(217,156,185); stroke-width: 0; stroke-dasharray: none; stroke-linecap: butt; stroke-dashoffset: 0; stroke-linejoin: miter; stroke-miterlimit: 4; fill: rgb(255,255,255); fill-rule: nonzero; opacity: 1;"  transform=" translate(0, 0)" d="M 0 -250.7732 C 138.4268 -250.7732 250.7732 -138.42681 250.7732 0 C 250.7732 138.4268 138.42681 250.7732 0 250.7732 C -138.4268 250.7732 -250.7732 138.42681 -250.7732 0 C -250.7732 -138.4268 -138.42681 -250.7732 0 -250.7732 z" stroke-linecap="round" />
</g>
<g transform="matrix(0.908544217 0 0 0.908544217 331.0204405965 322.7238556671)" id="nvyn8VDoZ8mvxiqJbQbcJ"  >
<path style="stroke: rgb(217,156,185); stroke-width: 0; stroke-dasharray: none; stroke-linecap: butt; stroke-dashoffset: 0; stroke-linejoin: miter; stroke-miterlimit: 4; fill: rgb(0,165,225); fill-rule: nonzero; opacity: 1;"  transform=" translate(0, 0)" d="M 0 -250.7732 C 138.4268 -250.7732 250.7732 -138.42681 250.7732 0 C 250.7732 138.4268 138.42681 250.7732 0 250.7732 C -138.4268 250.7732 -250.7732 138.42681 -250.7732 0 C -250.7732 -138.4268 -138.42681 -250.7732 0 -250.7732 z" stroke-linecap="round" />
</g>
<g transform="matrix(1 0 0 1 331.2965849294 275.157707398)" id="ZaCVRXeo8yo92JvP2Fs-B"  >
<path style="stroke: rgb(0,0,0); stroke-width: 0; stroke-dasharray: none; stroke-linecap: butt; stroke-dashoffset: 0; stroke-linejoin: miter; stroke-miterlimit: 4; fill: rgb(255,255,255); fill-rule: nonzero; opacity: 1;"  transform=" translate(0, 0)" d="M -170.95286 -46.12142 L 170.95285 -46.12142 L -0.791499999999985 46.121430000000004 z" stroke-linecap="round" />
</g>
<g transform="matrix(1 0 0 1 331.2965849294 330.5566021417)" id="qyLwWsdDuenpQCPPG9Qwy"  >
<path style="stroke: rgb(0,0,0); stroke-width: 0; stroke-dasharray: none; stroke-linecap: butt; stroke-dashoffset: 0; stroke-linejoin: miter; stroke-miterlimit: 4; fill: rgb(255,255,255); fill-rule: nonzero; opacity: 1;"  transform=" translate(0, 0)" d="M -171.45286 -87.37887 L -0.9863 4.8887399999999985 L 171.45285 -87.37887 L 171.45285 87.37887999999998 L -171.45286 87.37887999999998 z" stroke-linecap="round" />
</g>
</svg>